<svg width="61" height="28" viewBox="0 0 61 28" fill="none" xmlns="http://www.w3.org/2000/svg">
<path d="M12.7697 8.4348C13.3542 8.25058 13.9777 8.15233 14.6246 8.15233C17.4563 8.15233 19.8205 10.0535 20.3608 12.581L24.3746 11.8073C23.455 7.5137 19.4386 4.28125 14.6246 4.28125C13.5205 4.28125 12.4631 4.45073 11.4707 4.76513L12.7697 8.4348Z" fill="#FFCB05"/>
<path d="M8.03353 20.7309L10.7484 17.83C9.53773 16.8156 8.77394 15.3345 8.77394 13.6839C8.77394 12.0357 9.53773 10.5546 10.7484 9.54259L8.03353 6.63928C5.97597 8.36358 4.677 10.8813 4.677 13.6839C4.677 16.4889 5.97597 19.0066 8.03353 20.7309" fill="#00A4E0"/>
<path d="M20.3608 14.7941C19.8179 17.3191 17.4563 19.2178 14.6272 19.2178C13.9777 19.2178 13.3516 19.1196 12.7697 18.9329L11.4707 22.6075C12.4631 22.9194 13.5231 23.0889 14.6272 23.0889C19.436 23.0889 23.4498 19.8613 24.3746 15.5727L20.3608 14.7941Z" fill="#EF4123"/>
<path d="M27.8843 17.9504C27.7518 17.749 27.5752 17.4272 27.4661 17.189C26.8296 15.7938 26.801 14.3495 27.3362 12.9642C27.9259 11.4437 29.0534 10.2819 30.5108 9.68752C32.3424 8.94327 34.3662 9.08819 36.1224 10.0732C37.2369 10.6774 38.0266 11.6108 38.6268 12.9322C38.7021 13.1017 38.7696 13.281 38.8372 13.4358L27.8843 17.9504ZM31.5422 11.9301C30.2406 12.4582 29.5704 13.6126 29.7107 14.9636L35.2183 12.721C34.27 11.6697 33.0386 11.3209 31.5422 11.9301V11.9301ZM35.9041 16.8082C35.9015 16.8082 35.9015 16.8107 35.9015 16.8107L35.7872 16.737C35.4573 17.2405 34.9455 17.6507 34.2986 17.916C33.0672 18.422 31.9267 18.2918 31.1058 17.6114L31.0304 17.7195C31.0304 17.7195 31.0304 17.7171 31.0278 17.7171L29.6301 19.6944C29.9782 19.9228 30.3498 20.1144 30.7394 20.2691C32.2826 20.8758 33.8622 20.8463 35.4183 20.2077C36.5432 19.7459 37.4265 19.0434 38.0292 18.1518L35.9041 16.8082ZM42.6639 6.7793V17.7686L44.4721 18.4613L43.4459 20.726L41.4507 19.94C41.0039 19.7558 40.6973 19.4757 40.4687 19.1589C40.2479 18.8371 40.0842 18.3925 40.0842 17.7981V6.7793H42.6639ZM47.3454 14.9709C47.3454 14.0351 47.7845 13.1951 48.4755 12.6252L46.6206 10.67C45.3632 11.7213 44.5708 13.2565 44.5708 14.966C44.5682 16.6781 45.3606 18.2157 46.6154 19.267L48.4677 17.3118C47.7793 16.7395 47.3454 15.9043 47.3454 14.9709V14.9709ZM50.6396 18.088C50.2759 18.088 49.9226 18.029 49.5952 17.9258L48.7093 20.414C49.3146 20.6056 49.9615 20.7112 50.637 20.7112C53.5727 20.7137 56.0225 18.7438 56.5915 16.1278L53.8688 15.6022C53.5597 17.0244 52.2321 18.0904 50.6396 18.088V18.088ZM50.6474 9.23065C49.9745 9.23065 49.3276 9.33382 48.7223 9.52295L49.6004 12.0136C49.9304 11.9104 50.2811 11.8539 50.6448 11.8539C52.2399 11.8564 53.5701 12.9273 53.8714 14.352L56.5941 13.8312C56.0355 11.2104 53.5856 9.23311 50.6474 9.23065V9.23065Z" fill="white"/>
</svg>
